HIERARCHY
ROOT Hips
{
	OFFSET 0.00000 0.00000 0.00000
	CHANNELS 6 Xposition Yposition Zposition Yrotation Zrotation Xrotation 
	JOINT Lumbar
	{
		OFFSET 0 0 0
		CHANNELS 3 Zrotation Xrotation Yrotation
		JOINT Neck
		{
			OFFSET 0.00 0.2701 0.00
			CHANNELS 3 Zrotation Xrotation Yrotation
			End Site
			{
				OFFSET 0.00 0.1379 0.00
			}
		}
		JOINT RightShoulder
		{
			OFFSET 0.0119 0.2289 0.1181
			CHANNELS 3 Zrotation Xrotation Yrotation
			JOINT RightElbow
			{
				OFFSET 0.00 -0.1475 0.00
				CHANNELS 2 Zrotation Yrotation
				JOINT RightWrist
				{
					OFFSET 0.00 -0.1605 0.00
					CHANNELS 2 Zrotation Xrotation
					End Site
					{
						OFFSET 0.0040 -0.1068 0.0006
					}
				}
			}
		}
		JOINT LeftShoulder
		{
			OFFSET 0.0119 0.2289 -0.1181
			CHANNELS 3 Zrotation Xrotation Yrotation
			JOINT LeftElbow
			{
				OFFSET 0.00 -0.1475 0.00
				CHANNELS 2 Zrotation Yrotation
				JOINT LeftWrist
				{
					OFFSET 0.00 -0.1605 0.00
					CHANNELS 2 Zrotation Xrotation
					End Site
					{
						OFFSET 0.0040 -0.1068 -0.0006
					}
				}
			}
		}
	}
	JOINT RightHip
	{
		OFFSET 0.0316 -0.0424 0.0458
		CHANNELS 3 Zrotation Xrotation Yrotation
		JOINT RightKnee
		{
			OFFSET 0.00 -0.2438 0.00
			CHANNELS 1 Zrotation
			JOINT RightAnkle
			{
				OFFSET 0.00 -0.2449 0.00
				CHANNELS 3 Zrotation Xrotation Yrotation
				End Site
				{
					OFFSET 0.1237 -0.0542 0.0051
				}
			}
		}
	}
	JOINT LeftHip
	{
		OFFSET 0.0316 -0.0424 -0.0458
		CHANNELS 3 Zrotation Xrotation Yrotation
		JOINT LeftKnee
		{
			OFFSET 0.00 -0.2438 0.00
			CHANNELS 1 Zrotation
			JOINT LeftAnkle
			{
				OFFSET 0.00 -0.2449 0.00
				CHANNELS 3 Zrotation Xrotation Yrotation
				End Site
				{
					OFFSET 0.1237 -0.0542 -0.0051
				}
			}
		}
	}
}
MOTION
Frames: 22
Frame Time: 0.02
0.00034 -0.00026 -0.00054 -175.06001 -31.04059 1.99558 46.36488 -0.53214 -7.82482 -10.83705 1.97461 -0.98167 -20.9972 -3.99241 -9.67197 28.1498 94.41372 7.67074 1.7509 -25.8135 5.17304 7.42772 31.28618 -105.39398 15.69413 -1.9929 28.53689 -4.13392 -5.8356 -20.40147 -6.78661 -3.83669 -4.10187 33.14572 7.01868 9.51857 -24.35828 -6.42561 1.86034 3.13615
0.00096 -0.00022 -0.00022 -175.12169 -31.19817 1.97486 46.23889 -0.47282 -7.83823 -10.40659 2.10868 -0.98333 -20.85701 -4.11644 -9.78648 28.01799 94.34252 7.59998 1.73921 -25.64061 5.35021 7.08479 31.49874 -105.30406 15.64183 -1.99623 28.77589 -4.20434 -6.07939 -20.40383 -6.76742 -3.81061 -4.08765 33.38122 6.93446 9.22014 -24.37313 -6.42762 1.89752 3.15439
0.00159 -0.00019 9e-05 -175.18317 -31.35526 1.95419 46.11326 -0.41369 -7.85164 -9.97752 2.24241 -0.985 -20.7175 -4.24023 -9.90051 27.88693 94.27139 7.52944 1.72755 -25.46813 5.52635 6.74408 31.71121 -105.21992 15.59141 -2.00042 29.01417 -4.27463 -6.32263 -20.40618 -6.74827 -3.7846 -4.07348 33.61604 6.85047 8.92272 -24.38795 -6.42964 1.93459 3.17256
0.00222 -0.00015 0.0004 -175.24465 -31.51236 1.93353 45.98765 -0.35455 -7.86502 -9.5484 2.37607 -0.98666 -20.57779 -4.36389 -10.01465 27.75559 94.20038 7.45889 1.71589 -25.29576 5.70287 6.40248 31.92321 -105.13157 15.53967 -2.00394 29.25244 -4.34485 -6.56572 -20.40853 -6.72913 -3.7586 -4.05931 33.85083 6.7665 8.62525 -24.40275 -6.43165 1.97165 3.19074
0.00285 -0.00011 0.00071 -175.30637 -31.66994 1.91282 45.86169 -0.29522 -7.87837 -9.11789 2.51004 -0.98832 -20.43729 -4.48774 -10.12932 27.62333 94.12937 7.38816 1.70419 -25.12301 5.8807 6.05798 32.13506 -105.03429 15.48507 -2.0061 29.4914 -4.41517 -6.80923 -20.41089 -6.70995 -3.73255 -4.04511 34.08628 6.68229 8.32667 -24.41759 -6.43367 2.00885 3.20899
0.00347 -8e-05 0.00102 -175.36732 -31.82597 1.89225 45.73676 -0.23651 -7.8919 -8.69188 2.64326 -0.98999 -20.29984 -4.6114 -10.24197 27.49479 94.05801 7.31801 1.6926 -24.95112 6.05333 5.72508 32.34881 -104.97709 15.44322 -2.01446 29.72824 -4.48538 -7.05184 -20.41323 -6.69088 -3.70662 -4.03098 34.31972 6.59876 8.03165 -24.43236 -6.43567 2.04564 3.22701
0.0041 -4e-05 0.00134 -175.42973 -31.98498 1.87142 45.60988 -0.17662 -7.90508 -8.25725 2.77784 -0.99165 -20.15645 -4.7353 -10.35858 27.35898 93.9874 7.24674 1.68082 -24.7777 6.23599 5.36993 32.55858 -104.84232 15.37672 -2.01081 29.9691 -4.55577 -7.29615 -20.41559 -6.6716 -3.68047 -4.01672 34.55698 6.514 7.73002 -24.44724 -6.43771 2.08317 3.24545
0.00473 -1e-05 0.00165 -175.49084 -32.1412 1.85082 45.48482 -0.11781 -7.91854 -7.83065 2.91114 -0.99331 -20.01848 -4.85896 -10.47154 27.22973 93.91616 7.17652 1.66921 -24.60571 6.40982 5.03399 32.77185 -104.77361 15.3312 -2.01738 30.20622 -4.62593 -7.53858 -20.41794 -6.65253 -3.65454 -4.00259 34.79068 6.43029 7.43407 -24.46203 -6.43971 2.12007 3.26353
0.00535 3e-05 0.00196 -175.5502 -32.29423 1.83056 45.36185 -0.06032 -7.93249 -7.41338 3.04307 -0.995 -19.88737 -4.98251 -10.58003 27.10908 93.84384 7.10751 1.65781 -24.43529 6.57118 4.72678 32.99026 -104.80832 15.31856 -2.04001 30.43902 -4.69609 -7.78009 -20.42026 -6.63363 -3.62878 -3.98857 35.0203 6.34816 7.14658 -24.47668 -6.44165 2.15601 3.2811
0.006 7e-05 0.00227 -175.61916 -32.46627 1.8085 45.22647 0.00478 -7.9441 -6.94095 3.18347 -0.99659 -19.71749 -5.10725 -10.71421 26.94072 93.77679 7.03132 1.6452 -24.25527 6.79925 4.27007 33.18174 -104.31623 15.1385 -1.98095 30.69745 -4.7671 -8.03108 -20.42272 -6.61348 -3.60174 -3.97375 35.27422 6.25783 6.81498 -24.49206 -6.4439 2.19694 3.30136
0.00658 0.0001 0.00258 -175.66813 -32.59776 1.79015 45.11751 0.05377 -7.96035 -6.58587 3.30562 -0.99837 -19.62893 -5.22906 -10.7942 26.87184 93.69924 6.97041 1.63516 -24.09591 6.88983 4.11855 33.42823 -104.89139 15.29759 -2.08729 30.90128 -4.83575 -8.25936 -20.42488 -6.59615 -3.57762 -3.96074 35.4763 6.18424 6.57354 -24.50592 -6.44554 2.22767 3.31611
0.00701 0.00012 0.00292 -175.65951 -32.62063 1.78265 45.07971 0.05861 -7.99204 -6.54793 3.38042 -1.00068 -19.7698 -5.34625 -10.72387 27.08865 93.58751 6.95072 1.63199 -23.99072 6.57149 4.9005 33.84238 -108.80547 16.51808 -2.71199 30.9581 -4.90275 -8.44805 -20.42626 -6.58513 -3.55972 -3.95175 35.53951 6.16207 6.6078 -24.51558 -6.44508 2.22731 3.3141
0.00737 0.00013 0.00327 -175.63132 -32.60231 1.77871 45.06867 0.04726 -8.02791 -6.6287 3.43642 -1.00317 -19.99123 -5.45982 -10.59943 27.40314 93.46625 6.94653 1.63145 -23.90689 6.12025 5.97343 34.30878 -113.72663 18.05864 -3.49264 30.95956 -4.96662 -8.61045 -20.42733 -6.57717 -3.54504 -3.94473 35.55004 6.156 6.72867 -24.52372 -6.44406 2.21714 3.30678
0.00775 0.00014 0.00361 -175.61389 -32.60109 1.77277 45.04626 0.04326 -8.06009 -6.65836 3.49921 -1.00556 -20.17163 -5.57286 -10.50078 27.6644 93.35281 6.93566 1.62983 -23.81478 5.7514 6.84752 34.74019 -117.90448 19.36261 -4.15746 30.98453 -5.02863 -8.76913 -20.42852 -6.56879 -3.53012 -3.93746 35.58246 6.13863 6.78973 -24.53257 -6.44359 2.21369 3.30304
0.00816 0.00015 0.00395 -175.58858 -32.60656 1.76862 45.02059 0.03923 -8.09977 -6.67641 3.56929 -1.00804 -20.3706 -5.69525 -10.39693 27.96254 93.2245 6.92317 1.62771 -23.71617 5.29237 7.99379 35.2187 -123.24328 21.03657 -5.00486 31.01639 -5.10401 -8.99097 -20.42981 -6.55646 -3.51025 -3.92755 35.62342 6.13687 6.93184 -24.54133 -6.44195 2.20132 3.29463
0.0085 0.00017 0.00429 -175.57499 -32.5884 1.76137 45.00803 0.03144 -8.12489 -6.74659 3.61985 -1.01036 -20.5503 -5.7971 -10.29113 28.20784 93.12507 6.91787 1.62726 -23.63683 4.98597 8.65414 35.61208 -126.4616 22.03504 -5.51842 31.02074 -5.1514 -9.0787 -20.43079 -6.55288 -3.50119 -3.92347 35.63412 6.10798 6.93252 -24.54992 -6.4425 2.20441 3.29433
0.00865 0.00018 0.0046 -175.59933 -32.5144 1.74638 45.02532 0.01712 -8.10804 -6.93354 3.62014 -1.01219 -20.65429 -5.84483 -10.19284 28.2761 93.10649 6.92726 1.63076 -23.59994 5.16682 7.79498 35.75238 -123.05523 20.91924 -4.98765 30.96287 -5.11717 -8.771 -20.4312 -6.57447 -3.52343 -3.93628 35.57398 5.98636 6.46055 -24.55835 -6.45023 2.25956 3.32103
0.00872 0.00019 0.0049 -175.63602 -32.41806 1.7278 45.05493 -0.00044 -8.07648 -7.1688 3.6017 -1.01386 -20.73674 -5.87174 -10.09457 28.28924 93.11771 6.94365 1.63584 -23.58295 5.50034 6.45512 35.8062 -117.56828 19.1416 -4.12963 30.87909 -5.05585 -8.33505 -20.43127 -6.60444 -3.55603 -3.95463 35.48515 5.83919 5.85344 -24.56668 -6.46002 2.32945 3.35551
0.00883 0.00021 0.0052 -175.66656 -32.33251 1.70974 45.07867 -0.01641 -8.05217 -7.38032 3.59241 -1.0156 -20.83067 -5.90702 -9.99651 28.33223 93.11584 6.95762 1.64019 -23.56016 5.74141 5.40689 35.90299 -113.3881 17.7823 -3.47872 30.80723 -5.01029 -7.97863 -20.43136 -6.62943 -3.58245 -3.96958 35.4097 5.71317 5.34959 -24.57508 -6.46821 2.38789 3.38418
0.00893 0.00022 0.00549 -175.69866 -32.24325 1.69658 45.10417 -0.03332 -8.02578 -7.60222 3.5795 -1.01732 -20.91971 -5.94665 -9.89551 28.35796 93.11099 6.96862 1.64467 -23.52346 6.07264 4.06576 35.98601 -107.75552 15.94919 -2.59332 30.73331 -4.95003 -7.53197 -20.43197 -6.65947 -3.61523 -3.98832 35.33138 5.5486 4.67689 -24.58326 -6.47911 2.46551 3.42201
0.00903 0.00025 0.00582 -175.73074 -32.15643 1.67222 45.129 -0.04899 -7.99997 -7.81403 3.57025 -1.01906 -21.01349 -5.97246 -9.80149 28.40578 93.12048 6.98765 1.64922 -23.52141 6.25731 3.20943 36.0766 -104.59382 14.9274 -2.10833 30.65763 -4.91404 -7.24269 -20.43146 -6.68095 -3.63713 -4.00046 35.25239 5.4566 4.31664 -24.59197 -6.48493 2.5075 3.44299
0.0091 0.00034 0.00626 -175.75935 -32.08604 1.61858 45.14514 -0.05903 -7.98084 -7.97279 3.57318 -1.02088 -21.11902 -5.96404 -9.72612 28.52249 93.15471 7.02405 1.65374 -23.59909 5.97261 3.87191 36.20691 -109.16792 16.43014 -2.88024 30.58831 -4.95148 -7.42366 -20.42765 -6.6767 -3.62671 -3.99291 35.18247 5.58366 4.90475 -24.60162 -6.4757 2.44142 3.41272
